<svg width="204" height="55" viewBox="0 0 204 55" fill="none" xmlns="http://www.w3.org/2000/svg">
<g clip-path="url(#clip0_161_4149)">
<path d="M75.0093 27.4127H71.5324V40.3984H66.6619V27.4127H64.151V23.2501H66.6619V21.6352C66.6619 17.4357 69.2833 15.2861 73.2653 15.2861C73.8857 15.2906 74.5038 15.3623 75.1088 15.5V20.3853C74.5829 20.1767 74.0228 20.0679 73.457 20.0645C73.2024 20.0451 72.9466 20.081 72.7072 20.1698C72.4677 20.2587 72.2504 20.3982 72.07 20.579C71.8896 20.7597 71.7504 20.9773 71.6621 21.2169C71.5738 21.4565 71.5383 21.7124 71.5582 21.967V23.2575H75.0351L75.0093 27.4127ZM82.3317 40.3984H77.4169V15.6438H82.3317V40.3984Z" fill="white"/>
<path d="M93.2378 22.1738C95.0807 22.1702 96.8831 22.7136 98.4169 23.7351C99.9507 24.7567 101.147 26.2105 101.854 27.9123C102.561 29.6142 102.747 31.4876 102.388 33.2952C102.029 35.1029 101.142 36.7634 99.8392 38.0665C98.5361 39.3696 96.8756 40.2566 95.0679 40.6152C93.2603 40.9739 91.3869 40.788 89.685 40.081C87.9832 39.3741 86.5294 38.178 85.5078 36.6442C84.4863 35.1104 83.9429 33.308 83.9465 31.4651C83.9286 30.24 84.1568 29.0238 84.6173 27.8884C85.0779 26.7531 85.7617 25.7217 86.628 24.8553C87.4944 23.989 88.5258 23.3052 89.6611 22.8446C90.7965 22.384 92.0127 22.1559 93.2378 22.1738ZM93.2378 36.0223C95.7487 36.0223 97.5442 33.9428 97.5442 31.4651C97.5442 28.9874 95.7487 26.9448 93.2378 26.9448C90.7269 26.9448 88.8945 28.9911 88.8945 31.4651C88.8945 33.9391 90.7601 36.0223 93.2378 36.0223Z" fill="white"/>
<path d="M107.661 22.5311L110.817 34.3959L113.974 24.9608L113.118 22.5311H117.963L122.118 34.3959L125.204 22.52H130.263L124.953 40.3873H119.858L116.307 30.5946L113.008 40.3873H107.875L102.603 22.52L107.661 22.5311Z" fill="white"/>
<path d="M27.6643 54.4756C42.576 54.4756 54.6643 42.3873 54.6643 27.4756C54.6643 12.5639 42.576 0.475586 27.6643 0.475586C12.7526 0.475586 0.664307 12.5639 0.664307 27.4756C0.664307 42.3873 12.7526 54.4756 27.6643 54.4756Z" fill="#00EF8B"/>
<path d="M39.5144 23.2505H31.8896V30.8752H39.5144V23.2505Z" fill="white"/>
<path d="M24.2612 33.7327C24.2619 34.2989 24.0946 34.8525 23.7805 35.3236C23.4664 35.7947 23.0196 36.162 22.4967 36.379C21.9737 36.596 21.3981 36.653 20.8428 36.5427C20.2874 36.4324 19.7773 36.1598 19.3769 35.7595C18.9766 35.3591 18.704 34.849 18.5937 34.2936C18.4834 33.7383 18.5404 33.1627 18.7574 32.6397C18.9744 32.1168 19.3417 31.67 19.8128 31.3559C20.2839 31.0418 20.8375 30.8745 21.4037 30.8752H24.2612V23.2505H21.4074C19.3342 23.2505 17.3076 23.8653 15.5838 25.0171C13.86 26.1689 12.5165 27.8059 11.7231 29.7213C10.9298 31.6367 10.7222 33.7443 11.1266 35.7776C11.5311 37.811 12.5294 39.6787 13.9954 41.1447C15.4614 42.6107 17.3291 43.609 19.3624 44.0134C21.3958 44.4179 23.5034 44.2103 25.4188 43.4169C27.3341 42.6236 28.9712 41.28 30.123 39.5563C31.2748 37.8325 31.8896 35.8058 31.8896 33.7327V30.8752H24.2612V33.7327Z" fill="white"/>
<path d="M34.747 19.4379H43.323V11.8169H34.747C31.9672 11.8188 29.3018 12.9237 27.3359 14.889C25.3699 16.8542 24.2641 19.5193 24.2612 22.2991V23.2503H31.8896V22.2991C31.8906 21.5412 32.1918 20.8146 32.7274 20.2783C33.2629 19.7421 33.9892 19.4399 34.747 19.4379Z" fill="white"/>
<path d="M24.2649 30.8752H31.8896V23.2505H24.2649V30.8752Z" fill="#16FF99"/>
<path d="M133.589 34.0863C134.037 34.0762 134.482 34.1571 134.898 34.324C135.315 34.4909 135.692 34.7403 136.01 35.0574C136.327 35.3744 136.576 35.7523 136.743 36.1684C136.91 36.5845 136.991 37.0301 136.981 37.4783C136.988 37.9226 136.906 38.3637 136.737 38.7747C136.568 39.1858 136.317 39.558 136 39.8687C135.682 40.1794 135.305 40.422 134.89 40.5815C134.475 40.7411 134.032 40.8143 133.589 40.7966C133.149 40.8094 132.712 40.7323 132.304 40.57C131.895 40.4078 131.524 40.1638 131.214 39.8531C130.903 39.5424 130.659 39.1715 130.497 38.7631C130.335 38.3548 130.257 37.9176 130.27 37.4783C130.253 37.0344 130.326 36.5915 130.485 36.1769C130.645 35.7623 130.887 35.3846 131.198 35.067C131.509 34.7494 131.881 34.4986 132.292 34.33C132.703 34.1613 133.144 34.0784 133.589 34.0863Z" fill="white"/>
<path d="M152.802 39.9711C151.554 40.538 150.201 40.8334 148.831 40.8375C143.123 40.8375 139.329 36.7228 139.329 31.4467C139.329 26.1706 143.123 22.0928 148.831 22.0928C150.196 22.1059 151.546 22.3891 152.802 22.926V28.1284C151.633 27.3269 150.248 26.8988 148.831 26.9006C147.641 26.9344 146.512 27.4307 145.682 28.2841C144.853 29.1375 144.389 30.2806 144.389 31.4707C144.389 32.6608 144.853 33.8039 145.682 34.6573C146.512 35.5106 147.641 36.007 148.831 36.0407C150.256 36.0448 151.646 35.5983 152.802 34.765V39.9711Z" fill="white"/>
<path d="M164.397 22.0923C166.252 22.0887 168.067 22.6357 169.611 23.6642C171.155 24.6926 172.359 26.1562 173.071 27.8695C173.783 29.5829 173.97 31.4689 173.609 33.2887C173.248 35.1084 172.355 36.7801 171.043 38.092C169.731 39.4038 168.059 40.2969 166.24 40.6579C164.42 41.019 162.534 40.8318 160.82 40.1201C159.107 39.4085 157.644 38.2043 156.615 36.6602C155.587 35.1161 155.04 33.3015 155.043 31.4463C155.025 30.2128 155.254 28.9882 155.718 27.845C156.181 26.7019 156.87 25.6633 157.742 24.7911C158.614 23.9188 159.653 23.2305 160.796 22.7669C161.939 22.3033 163.164 22.0739 164.397 22.0923ZM164.397 36.0366C166.927 36.0366 168.729 33.9387 168.729 31.4463C168.729 28.9539 166.927 26.8965 164.397 26.8965C161.868 26.8965 160.028 28.9576 160.028 31.4463C160.028 33.935 161.905 36.0366 164.397 36.0366Z" fill="white"/>
<path d="M181.734 24.5848C182.216 23.807 182.893 23.1681 183.697 22.7311C184.501 22.2941 185.405 22.074 186.32 22.0924C188.85 22.0924 190.837 23.2501 191.851 25.3443C192.717 23.5008 194.454 22.0924 197.16 22.0924C200.63 22.0924 203.34 24.8392 203.34 28.7032V40.4426H198.421V30.119C198.421 28.0948 197.267 26.9039 195.534 26.9039C193.801 26.9039 192.533 28.0948 192.533 30.119V40.4426H187.622V30.119C187.622 28.0948 186.468 26.9039 184.731 26.9039C182.995 26.9039 181.844 27.9879 181.734 29.8535V40.4426H176.823V22.4537H181.734V24.5848Z" fill="white"/>
</g>
<defs>
<clipPath id="clip0_161_4149">
<rect width="202.671" height="54" fill="white" transform="translate(0.664307 0.475586)"/>
</clipPath>
</defs>
</svg>
